0
SECTION
2
HEADER
9
$INSUNITS
70
4
9
$ACADVER
1
AC1014
9
$HANDSEED
5
FFFF
0
ENDSEC
0
SECTION
2
TABLES
0
TABLE
2
VPORT
5
8
100
AcDbSymbolTable
0
ENDTAB
0
TABLE
2
LTYPE
5
5
100
AcDbSymbolTable
0
LTYPE
5
14
100
AcDbSymbolTableRecord
100
AcDbLinetypeTableRecord
2
BYBLOCK
70
0
0
LTYPE
5
15
100
AcDbSymbolTableRecord
100
AcDbLinetypeTableRecord
2
BYLAYER
70
0
0
LTYPE
5
16
100
AcDbSymbolTableRecord
100
AcDbLinetypeTableRecord
2
DASHED
70
0
3
Dashed __ __ __ __ __ __ __ __ __ __ __ __ __ _
72
65
73
2
40
0.75
49
0.5
74
0
49
-0.25
74
0
0
ENDTAB
0
TABLE
2
LAYER
5
2
100
AcDbSymbolTable
70
2
0
LAYER
5
50
100
AcDbSymbolTableRecord
100
AcDbLayerTableRecord
2
0
70
0
62
7
6
CONTINUOUS
0
ENDTAB
0
TABLE
2
STYLE
5
3
100
AcDbSymbolTable
70
1
0
STYLE
5
11
100
AcDbSymbolTableRecord
100
AcDbTextStyleTableRecord
2
STANDARD
70
0
0
ENDTAB
0
TABLE
2
VIEW
5
6
100
AcDbSymbolTable
70
0
0
ENDTAB
0
TABLE
2
UCS
5
7
100
AcDbSymbolTable
70
0
0
ENDTAB
0
TABLE
2
APPID
5
9
100
AcDbSymbolTable
70
2
0
APPID
5
12
100
AcDbSymbolTableRecord
100
AcDbRegAppTableRecord
2
ACAD
70
0
0
ENDTAB
0
TABLE
2
DIMSTYLE
5
A
100
AcDbSymbolTable
70
1
0
ENDTAB
0
TABLE
2
BLOCK_RECORD
5
1
100
AcDbSymbolTable
70
1
0
BLOCK_RECORD
5
1F
100
AcDbSymbolTableRecord
100
AcDbBlockTableRecord
2
*MODEL_SPACE
0
BLOCK_RECORD
5
1B
100
AcDbSymbolTableRecord
100
AcDbBlockTableRecord
2
*PAPER_SPACE
0
ENDTAB
0
ENDSEC
0
SECTION
2
BLOCKS
0
BLOCK
5
20
100
AcDbEntity
100
AcDbBlockBegin
2
*MODEL_SPACE
0
ENDBLK
5
21
100
AcDbEntity
100
AcDbBlockEnd
0
BLOCK
5
1C
100
AcDbEntity
100
AcDbBlockBegin
2
*PAPER_SPACE
0
ENDBLK
5
1D
100
AcDbEntity
100
AcDbBlockEnd
0
ENDSEC
0
SECTION
2
ENTITIES
0
LWPOLYLINE
5
100
100
AcDbEntity
8
0
100
AcDbPolyline
90
4
70
1
43
0.0
10
-135
20
-12.5
42
0.99999999999999989
10
-135
20
-7.5
10
-145
20
-7.5
42
0.99999999999999989
10
-145
20
-12.5
0
LWPOLYLINE
5
101
100
AcDbEntity
8
0
100
AcDbPolyline
90
4
70
1
43
0.0
10
-255
20
-92.5
42
0.99999999999999989
10
-255
20
-87.5
10
-265
20
-87.5
42
0.99999999999999989
10
-265
20
-92.5
0
LWPOLYLINE
5
102
100
AcDbEntity
8
0
100
AcDbPolyline
90
4
70
1
43
0.0
10
-35
20
-192.5
10
-45
20
-192.5
42
-0.99999999999999989
10
-45
20
-187.5
10
-35
20
-187.5
42
-0.99999999999999989
0
LWPOLYLINE
5
103
100
AcDbEntity
8
0
100
AcDbPolyline
90
4
70
1
43
0.0
10
-135
20
-252.5
42
0.99999999999999989
10
-135
20
-247.5
10
-145
20
-247.5
42
0.99999999999999989
10
-145
20
-252.5
0
LWPOLYLINE
5
104
100
AcDbEntity
8
0
100
AcDbPolyline
90
4
70
1
43
0.0
10
-95
20
-252.5
42
0.99999999999999989
10
-95
20
-247.5
10
-105
20
-247.5
42
0.99999999999999989
10
-105
20
-252.5
0
LWPOLYLINE
5
105
100
AcDbEntity
8
0
100
AcDbPolyline
90
4
70
1
43
0.0
10
-15
20
-292.5
42
0.99999999999999989
10
-15
20
-287.5
10
-25
20
-287.5
42
0.99999999999999989
10
-25
20
-292.5
0
LWPOLYLINE
5
106
100
AcDbEntity
8
0
100
AcDbPolyline
90
4
70
1
43
0.0
10
-155
20
-72.5
10
-165
20
-72.5
42
-0.99999999999999989
10
-165
20
-67.5
10
-155
20
-67.5
42
-0.99999999999999989
0
LWPOLYLINE
5
107
100
AcDbEntity
8
0
100
AcDbPolyline
90
4
70
1
43
0.0
10
-115
20
-272.5
10
-125
20
-272.5
42
-0.99999999999999989
10
-125
20
-267.5
10
-115
20
-267.5
42
-0.99999999999999989
0
LWPOLYLINE
5
108
100
AcDbEntity
8
0
100
AcDbPolyline
90
4
70
1
43
0.0
10
-95
20
-172.5
42
0.99999999999999989
10
-95
20
-167.5
10
-105
20
-167.5
42
0.99999999999999989
10
-105
20
-172.5
0
LWPOLYLINE
5
109
100
AcDbEntity
8
0
100
AcDbPolyline
90
4
70
1
43
0.0
10
-155
20
-312.5
10
-165
20
-312.5
42
-0.99999999999999989
10
-165
20
-307.5
10
-155
20
-307.5
42
-0.99999999999999989
0
LWPOLYLINE
5
110
100
AcDbEntity
8
0
100
AcDbPolyline
90
4
70
1
43
0.0
10
-235
20
-232.5
10
-245
20
-232.5
42
-0.99999999999999989
10
-245
20
-227.5
10
-235
20
-227.5
42
-0.99999999999999989
0
LWPOLYLINE
5
111
100
AcDbEntity
8
0
100
AcDbPolyline
90
4
70
1
43
0.0
10
-155
20
-232.5
10
-165
20
-232.5
42
-0.99999999999999989
10
-165
20
-227.5
10
-155
20
-227.5
42
-0.99999999999999989
0
LWPOLYLINE
5
112
100
AcDbEntity
8
0
100
AcDbPolyline
90
4
70
1
43
0.0
10
-15
20
-92.5
42
0.99999999999999989
10
-15
20
-87.5
10
-25
20
-87.5
42
0.99999999999999989
10
-25
20
-92.5
0
LWPOLYLINE
5
113
100
AcDbEntity
8
0
100
AcDbPolyline
90
4
70
1
43
0.0
10
-55
20
-92.5
42
0.99999999999999989
10
-55
20
-87.5
10
-65
20
-87.5
42
0.99999999999999989
10
-65
20
-92.5
0
LWPOLYLINE
5
114
100
AcDbEntity
8
0
100
AcDbPolyline
90
4
70
1
43
0.0
10
-35
20
-272.5
10
-45
20
-272.5
42
-0.99999999999999989
10
-45
20
-267.5
10
-35
20
-267.5
42
-0.99999999999999989
0
LWPOLYLINE
5
115
100
AcDbEntity
8
0
100
AcDbPolyline
90
4
70
1
43
0.0
10
-195
20
-32.5
10
-205
20
-32.5
42
-0.99999999999999989
10
-205
20
-27.5
10
-195
20
-27.5
42
-0.99999999999999989
0
LWPOLYLINE
5
116
100
AcDbEntity
8
0
100
AcDbPolyline
90
4
70
1
43
0.0
10
-75
20
-272.5
10
-85
20
-272.5
42
-0.99999999999999989
10
-85
20
-267.5
10
-75
20
-267.5
42
-0.99999999999999989
0
LWPOLYLINE
5
117
100
AcDbEntity
8
0
100
AcDbPolyline
90
4
70
1
43
0.0
10
-235
20
-192.5
10
-245
20
-192.5
42
-0.99999999999999989
10
-245
20
-187.5
10
-235
20
-187.5
42
-0.99999999999999989
0
LWPOLYLINE
5
118
100
AcDbEntity
8
0
100
AcDbPolyline
90
4
70
1
43
0.0
10
-35
20
-112.5
10
-45
20
-112.5
42
-0.99999999999999989
10
-45
20
-107.5
10
-35
20
-107.5
42
-0.99999999999999989
0
LWPOLYLINE
5
119
100
AcDbEntity
8
0
100
AcDbPolyline
90
4
70
1
43
0.0
10
-235
20
-112.5
10
-245
20
-112.5
42
-0.99999999999999989
10
-245
20
-107.5
10
-235
20
-107.5
42
-0.99999999999999989
0
LWPOLYLINE
5
120
100
AcDbEntity
8
0
100
AcDbPolyline
90
4
70
1
43
0.0
10
-115
20
-232.5
10
-125
20
-232.5
42
-0.99999999999999989
10
-125
20
-227.5
10
-115
20
-227.5
42
-0.99999999999999989
0
LWPOLYLINE
5
121
100
AcDbEntity
8
0
100
AcDbPolyline
90
4
70
1
43
0.0
10
-55
20
-12.5
42
0.99999999999999989
10
-55
20
-7.5
10
-65
20
-7.5
42
0.99999999999999989
10
-65
20
-12.5
0
LWPOLYLINE
5
122
100
AcDbEntity
8
0
100
AcDbPolyline
90
4
70
1
43
0.0
10
-75
20
-232.5
10
-85
20
-232.5
42
-0.99999999999999989
10
-85
20
-227.5
10
-75
20
-227.5
42
-0.99999999999999989
0
LWPOLYLINE
5
123
100
AcDbEntity
8
0
100
AcDbPolyline
90
4
70
1
43
0.0
10
-175
20
-212.5
42
0.99999999999999989
10
-175
20
-207.5
10
-185
20
-207.5
42
0.99999999999999989
10
-185
20
-212.5
0
LWPOLYLINE
5
124
100
AcDbEntity
8
0
100
AcDbPolyline
90
4
70
1
43
0.0
10
-175
20
-252.5
42
0.99999999999999989
10
-175
20
-247.5
10
-185
20
-247.5
42
0.99999999999999989
10
-185
20
-252.5
0
LWPOLYLINE
5
125
100
AcDbEntity
8
0
100
AcDbPolyline
90
4
70
1
43
0.0
10
-235
20
-72.5
10
-245
20
-72.5
42
-0.99999999999999989
10
-245
20
-67.5
10
-235
20
-67.5
42
-0.99999999999999989
0
LWPOLYLINE
5
126
100
AcDbEntity
8
0
100
AcDbPolyline
90
4
70
1
43
0.0
10
-195
20
-112.5
10
-205
20
-112.5
42
-0.99999999999999989
10
-205
20
-107.5
10
-195
20
-107.5
42
-0.99999999999999989
0
LWPOLYLINE
5
127
100
AcDbEntity
8
0
100
AcDbPolyline
90
4
70
1
43
0.0
10
-255
20
-212.5
42
0.99999999999999989
10
-255
20
-207.5
10
-265
20
-207.5
42
0.99999999999999989
10
-265
20
-212.5
0
LWPOLYLINE
5
128
100
AcDbEntity
8
0
100
AcDbPolyline
90
4
70
1
43
0.0
10
-195
20
-72.5
10
-205
20
-72.5
42
-0.99999999999999989
10
-205
20
-67.5
10
-195
20
-67.5
42
-0.99999999999999989
0
LWPOLYLINE
5
129
100
AcDbEntity
8
0
100
AcDbPolyline
90
4
70
1
43
0.0
10
-255
20
-132.5
42
0.99999999999999989
10
-255
20
-127.5
10
-265
20
-127.5
42
0.99999999999999989
10
-265
20
-132.5
0
LWPOLYLINE
5
130
100
AcDbEntity
8
0
100
AcDbPolyline
90
4
70
1
43
0.0
10
-175
20
-132.5
42
0.99999999999999989
10
-175
20
-127.5
10
-185
20
-127.5
42
0.99999999999999989
10
-185
20
-132.5
0
LWPOLYLINE
5
131
100
AcDbEntity
8
0
100
AcDbPolyline
90
4
70
1
43
0.0
10
-35
20
-232.5
10
-45
20
-232.5
42
-0.99999999999999989
10
-45
20
-227.5
10
-35
20
-227.5
42
-0.99999999999999989
0
LWPOLYLINE
5
132
100
AcDbEntity
8
0
100
AcDbPolyline
90
4
70
1
43
0.0
10
-115
20
-112.5
10
-125
20
-112.5
42
-0.99999999999999989
10
-125
20
-107.5
10
-115
20
-107.5
42
-0.99999999999999989
0
LWPOLYLINE
5
133
100
AcDbEntity
8
0
100
AcDbPolyline
90
4
70
1
43
0.0
10
-195
20
-192.5
10
-205
20
-192.5
42
-0.99999999999999989
10
-205
20
-187.5
10
-195
20
-187.5
42
-0.99999999999999989
0
LWPOLYLINE
5
134
100
AcDbEntity
8
0
100
AcDbPolyline
90
4
70
1
43
0.0
10
-215
20
-252.5
42
0.99999999999999989
10
-215
20
-247.5
10
-225
20
-247.5
42
0.99999999999999989
10
-225
20
-252.5
0
LWPOLYLINE
5
135
100
AcDbEntity
8
0
100
AcDbPolyline
90
4
70
1
43
0.0
10
-135
20
-332.5
42
0.99999999999999989
10
-135
20
-327.5
10
-145
20
-327.5
42
0.99999999999999989
10
-145
20
-332.5
0
LWPOLYLINE
5
136
100
AcDbEntity
8
0
100
AcDbPolyline
90
4
70
1
43
0.0
10
-175
20
-172.5
42
0.99999999999999989
10
-175
20
-167.5
10
-185
20
-167.5
42
0.99999999999999989
10
-185
20
-172.5
0
LWPOLYLINE
5
137
100
AcDbEntity
8
0
100
AcDbPolyline
90
4
70
1
43
0.0
10
-95
20
-332.5
42
0.99999999999999989
10
-95
20
-327.5
10
-105
20
-327.5
42
0.99999999999999989
10
-105
20
-332.5
0
LWPOLYLINE
5
138
100
AcDbEntity
8
0
100
AcDbPolyline
90
4
70
1
43
0.0
10
-95
20
-212.5
42
0.99999999999999989
10
-95
20
-207.5
10
-105
20
-207.5
42
0.99999999999999989
10
-105
20
-212.5
0
LWPOLYLINE
5
139
100
AcDbEntity
8
0
100
AcDbPolyline
90
4
70
1
43
0.0
10
-95
20
-92.5
42
0.99999999999999989
10
-95
20
-87.5
10
-105
20
-87.5
42
0.99999999999999989
10
-105
20
-92.5
0
LWPOLYLINE
5
140
100
AcDbEntity
8
0
100
AcDbPolyline
90
4
70
1
43
0.0
10
-35
20
-152.5
10
-45
20
-152.5
42
-0.99999999999999989
10
-45
20
-147.5
10
-35
20
-147.5
42
-0.99999999999999989
0
LWPOLYLINE
5
141
100
AcDbEntity
8
0
100
AcDbPolyline
90
4
70
1
43
0.0
10
-175
20
-332.5
42
0.99999999999999989
10
-175
20
-327.5
10
-185
20
-327.5
42
0.99999999999999989
10
-185
20
-332.5
0
LWPOLYLINE
5
142
100
AcDbEntity
8
0
100
AcDbPolyline
90
4
70
1
43
0.0
10
-255
20
-332.5
42
0.99999999999999989
10
-255
20
-327.5
10
-265
20
-327.5
42
0.99999999999999989
10
-265
20
-332.5
0
LWPOLYLINE
5
143
100
AcDbEntity
8
0
100
AcDbPolyline
90
4
70
1
43
0.0
10
-235
20
-272.5
10
-245
20
-272.5
42
-0.99999999999999989
10
-245
20
-267.5
10
-235
20
-267.5
42
-0.99999999999999989
0
LWPOLYLINE
5
144
100
AcDbEntity
8
0
100
AcDbPolyline
90
4
70
1
43
0.0
10
-55
20
-172.5
42
0.99999999999999989
10
-55
20
-167.5
10
-65
20
-167.5
42
0.99999999999999989
10
-65
20
-172.5
0
LWPOLYLINE
5
145
100
AcDbEntity
8
0
100
AcDbPolyline
90
4
70
1
43
0.0
10
-15
20
-172.5
42
0.99999999999999989
10
-15
20
-167.5
10
-25
20
-167.5
42
0.99999999999999989
10
-25
20
-172.5
0
LWPOLYLINE
5
146
100
AcDbEntity
8
0
100
AcDbPolyline
90
4
70
1
43
0.0
10
-215
20
-92.5
42
0.99999999999999989
10
-215
20
-87.5
10
-225
20
-87.5
42
0.99999999999999989
10
-225
20
-92.5
0
LWPOLYLINE
5
147
100
AcDbEntity
8
0
100
AcDbPolyline
90
4
70
1
43
0.0
10
-15
20
-252.5
42
0.99999999999999989
10
-15
20
-247.5
10
-25
20
-247.5
42
0.99999999999999989
10
-25
20
-252.5
0
LWPOLYLINE
5
148
100
AcDbEntity
8
0
100
AcDbPolyline
90
4
70
1
43
0.0
10
-135
20
-92.5
42
0.99999999999999989
10
-135
20
-87.5
10
-145
20
-87.5
42
0.99999999999999989
10
-145
20
-92.5
0
LWPOLYLINE
5
149
100
AcDbEntity
8
0
100
AcDbPolyline
90
4
70
1
43
0.0
10
-55
20
-292.5
42
0.99999999999999989
10
-55
20
-287.5
10
-65
20
-287.5
42
0.99999999999999989
10
-65
20
-292.5
0
LWPOLYLINE
5
150
100
AcDbEntity
8
0
100
AcDbPolyline
90
4
70
1
43
0.0
10
-15
20
-132.5
42
0.99999999999999989
10
-15
20
-127.5
10
-25
20
-127.5
42
0.99999999999999989
10
-25
20
-132.5
0
LWPOLYLINE
5
151
100
AcDbEntity
8
0
100
AcDbPolyline
90
4
70
1
43
0.0
10
-175
20
-12.5
42
0.99999999999999989
10
-175
20
-7.5
10
-185
20
-7.5
42
0.99999999999999989
10
-185
20
-12.5
0
LWPOLYLINE
5
152
100
AcDbEntity
8
0
100
AcDbPolyline
90
4
70
1
43
0.0
10
-15
20
-52.5
42
0.99999999999999989
10
-15
20
-47.5
10
-25
20
-47.5
42
0.99999999999999989
10
-25
20
-52.5
0
LWPOLYLINE
5
153
100
AcDbEntity
8
0
100
AcDbPolyline
90
4
70
1
43
0.0
10
-75
20
-192.5
10
-85
20
-192.5
42
-0.99999999999999989
10
-85
20
-187.5
10
-75
20
-187.5
42
-0.99999999999999989
0
LWPOLYLINE
5
154
100
AcDbEntity
8
0
100
AcDbPolyline
90
4
70
1
43
0.0
10
-215
20
-12.5
42
0.99999999999999989
10
-215
20
-7.5
10
-225
20
-7.5
42
0.99999999999999989
10
-225
20
-12.5
0
LWPOLYLINE
5
155
100
AcDbEntity
8
0
100
AcDbPolyline
90
4
70
1
43
0.0
10
-175
20
-52.5
42
0.99999999999999989
10
-175
20
-47.5
10
-185
20
-47.5
42
0.99999999999999989
10
-185
20
-52.5
0
LWPOLYLINE
5
156
100
AcDbEntity
8
0
100
AcDbPolyline
90
4
70
1
43
0.0
10
-55
20
-52.5
42
0.99999999999999989
10
-55
20
-47.5
10
-65
20
-47.5
42
0.99999999999999989
10
-65
20
-52.5
0
LWPOLYLINE
5
157
100
AcDbEntity
8
0
100
AcDbPolyline
90
4
70
1
43
0.0
10
-95
20
-52.5
42
0.99999999999999989
10
-95
20
-47.5
10
-105
20
-47.5
42
0.99999999999999989
10
-105
20
-52.5
0
LWPOLYLINE
5
158
100
AcDbEntity
8
0
100
AcDbPolyline
90
4
70
1
43
0.0
10
-215
20
-172.5
42
0.99999999999999989
10
-215
20
-167.5
10
-225
20
-167.5
42
0.99999999999999989
10
-225
20
-172.5
0
LWPOLYLINE
5
159
100
AcDbEntity
8
0
100
AcDbPolyline
90
4
70
1
43
0.0
10
-115
20
-32.5
10
-125
20
-32.5
42
-0.99999999999999989
10
-125
20
-27.5
10
-115
20
-27.5
42
-0.99999999999999989
0
LWPOLYLINE
5
160
100
AcDbEntity
8
0
100
AcDbPolyline
90
4
70
1
43
0.0
10
-75
20
-312.5
10
-85
20
-312.5
42
-0.99999999999999989
10
-85
20
-307.5
10
-75
20
-307.5
42
-0.99999999999999989
0
LWPOLYLINE
5
161
100
AcDbEntity
8
0
100
AcDbPolyline
90
4
70
1
43
0.0
10
-235
20
-312.5
10
-245
20
-312.5
42
-0.99999999999999989
10
-245
20
-307.5
10
-235
20
-307.5
42
-0.99999999999999989
0
LWPOLYLINE
5
162
100
AcDbEntity
8
0
100
AcDbPolyline
90
4
70
1
43
0.0
10
-132.5
20
-167.5
10
-132.5
20
-172.5
10
-147.5
20
-172.5
10
-147.5
20
-167.5
0
LWPOLYLINE
5
163
100
AcDbEntity
8
0
100
AcDbPolyline
90
4
70
1
43
0.0
10
-215
20
-332.5
42
0.99999999999999989
10
-215
20
-327.5
10
-225
20
-327.5
42
0.99999999999999989
10
-225
20
-332.5
0
LWPOLYLINE
5
164
100
AcDbEntity
8
0
100
AcDbPolyline
90
4
70
1
43
0.0
10
-195
20
-232.5
10
-205
20
-232.5
42
-0.99999999999999989
10
-205
20
-227.5
10
-195
20
-227.5
42
-0.99999999999999989
0
LWPOLYLINE
5
165
100
AcDbEntity
8
0
100
AcDbPolyline
90
4
70
1
43
0.0
10
-255
20
-52.5
42
0.99999999999999989
10
-255
20
-47.5
10
-265
20
-47.5
42
0.99999999999999989
10
-265
20
-52.5
0
LWPOLYLINE
5
166
100
AcDbEntity
8
0
100
AcDbPolyline
90
4
70
1
43
0.0
10
-15
20
-212.5
42
0.99999999999999989
10
-15
20
-207.5
10
-25
20
-207.5
42
0.99999999999999989
10
-25
20
-212.5
0
LWPOLYLINE
5
167
100
AcDbEntity
8
0
100
AcDbPolyline
90
4
70
1
43
0.0
10
-135
20
-52.5
42
0.99999999999999989
10
-135
20
-47.5
10
-145
20
-47.5
42
0.99999999999999989
10
-145
20
-52.5
0
LWPOLYLINE
5
168
100
AcDbEntity
8
0
100
AcDbPolyline
90
4
70
1
43
0.0
10
-75
20
-32.5
10
-85
20
-32.5
42
-0.99999999999999989
10
-85
20
-27.5
10
-75
20
-27.5
42
-0.99999999999999989
0
LWPOLYLINE
5
169
100
AcDbEntity
8
0
100
AcDbPolyline
90
4
70
1
43
0.0
10
-155
20
-32.5
10
-165
20
-32.5
42
-0.99999999999999989
10
-165
20
-27.5
10
-155
20
-27.5
42
-0.99999999999999989
0
LWPOLYLINE
5
170
100
AcDbEntity
8
0
100
AcDbPolyline
90
4
70
1
43
0.0
10
-45
20
-27.5
10
-35
20
-27.5
42
-0.99999999999999989
10
-35
20
-32.5
10
-45
20
-32.5
42
-0.99999999999999989
0
LWPOLYLINE
5
171
100
AcDbEntity
8
0
100
AcDbPolyline
90
4
70
1
43
0.0
10
-75
20
-112.5
10
-85
20
-112.5
42
-0.99999999999999989
10
-85
20
-107.5
10
-75
20
-107.5
42
-0.99999999999999989
0
LWPOLYLINE
5
172
100
AcDbEntity
8
0
100
AcDbPolyline
90
4
70
1
43
0.0
10
-255
20
-252.5
42
0.99999999999999989
10
-255
20
-247.5
10
-265
20
-247.5
42
0.99999999999999989
10
-265
20
-252.5
0
LWPOLYLINE
5
173
100
AcDbEntity
8
0
100
AcDbPolyline
90
4
70
1
43
0.0
10
-95
20
-12.5
42
0.99999999999999989
10
-95
20
-7.5
10
-105
20
-7.5
42
0.99999999999999989
10
-105
20
-12.5
0
LWPOLYLINE
5
174
100
AcDbEntity
8
0
100
AcDbPolyline
90
4
70
1
43
0.0
10
-95
20
-132.5
42
0.99999999999999989
10
-95
20
-127.5
10
-105
20
-127.5
42
0.99999999999999989
10
-105
20
-132.5
0
LWPOLYLINE
5
175
100
AcDbEntity
8
0
100
AcDbPolyline
90
4
70
1
43
0.0
10
-15
20
-332.5
42
0.99999999999999989
10
-15
20
-327.5
10
-25
20
-327.5
42
0.99999999999999989
10
-25
20
-332.5
0
LWPOLYLINE
5
176
100
AcDbEntity
8
0
100
AcDbPolyline
90
4
70
1
43
0.0
10
-115
20
-312.5
10
-125
20
-312.5
42
-0.99999999999999989
10
-125
20
-307.5
10
-115
20
-307.5
42
-0.99999999999999989
0
LWPOLYLINE
5
177
100
AcDbEntity
8
0
100
AcDbPolyline
90
4
70
1
43
0.0
10
-35
20
-72.5
10
-45
20
-72.5
42
-0.99999999999999989
10
-45
20
-67.5
10
-35
20
-67.5
42
-0.99999999999999989
0
LWPOLYLINE
5
178
100
AcDbEntity
8
0
100
AcDbPolyline
90
4
70
1
43
0.0
10
-115
20
-72.5
10
-125
20
-72.5
42
-0.99999999999999989
10
-125
20
-67.5
10
-115
20
-67.5
42
-0.99999999999999989
0
LWPOLYLINE
5
179
100
AcDbEntity
8
0
100
AcDbPolyline
90
4
70
1
43
0.0
10
-75
20
-72.5
10
-85
20
-72.5
42
-0.99999999999999989
10
-85
20
-67.5
10
-75
20
-67.5
42
-0.99999999999999989
0
LWPOLYLINE
5
180
100
AcDbEntity
8
0
100
AcDbPolyline
90
4
70
1
43
0.0
10
-155
20
-112.5
10
-165
20
-112.5
42
-0.99999999999999989
10
-165
20
-107.5
10
-155
20
-107.5
42
-0.99999999999999989
0
LWPOLYLINE
5
181
100
AcDbEntity
8
0
100
AcDbPolyline
90
4
70
1
43
0.0
10
-215
20
-212.5
42
0.99999999999999989
10
-215
20
-207.5
10
-225
20
-207.5
42
0.99999999999999989
10
-225
20
-212.5
0
LWPOLYLINE
5
182
100
AcDbEntity
8
0
100
AcDbPolyline
90
4
70
1
43
0.0
10
-215
20
-132.5
42
0.99999999999999989
10
-215
20
-127.5
10
-225
20
-127.5
42
0.99999999999999989
10
-225
20
-132.5
0
LWPOLYLINE
5
183
100
AcDbEntity
8
0
100
AcDbPolyline
90
4
70
1
43
0.0
10
-135
20
-292.5
42
0.99999999999999989
10
-135
20
-287.5
10
-145
20
-287.5
42
0.99999999999999989
10
-145
20
-292.5
0
LWPOLYLINE
5
184
100
AcDbEntity
8
0
100
AcDbPolyline
90
4
70
1
43
0.0
10
-135
20
-132.5
42
0.99999999999999989
10
-135
20
-127.5
10
-145
20
-127.5
42
0.99999999999999989
10
-145
20
-132.5
0
LWPOLYLINE
5
185
100
AcDbEntity
8
0
100
AcDbPolyline
90
4
70
1
43
0.0
10
-235
20
-152.5
10
-245
20
-152.5
42
-0.99999999999999989
10
-245
20
-147.5
10
-235
20
-147.5
42
-0.99999999999999989
0
LWPOLYLINE
5
186
100
AcDbEntity
8
0
100
AcDbPolyline
90
4
70
1
43
0.0
10
-195
20
-152.5
10
-205
20
-152.5
42
-0.99999999999999989
10
-205
20
-147.5
10
-195
20
-147.5
42
-0.99999999999999989
0
LWPOLYLINE
5
187
100
AcDbEntity
8
0
100
AcDbPolyline
90
4
70
1
43
0.0
10
-175
20
-292.5
42
0.99999999999999989
10
-175
20
-287.5
10
-185
20
-287.5
42
0.99999999999999989
10
-185
20
-292.5
0
LWPOLYLINE
5
188
100
AcDbEntity
8
0
100
AcDbPolyline
90
4
70
1
43
0.0
10
-235
20
-32.5
10
-245
20
-32.5
42
-0.99999999999999989
10
-245
20
-27.5
10
-235
20
-27.5
42
-0.99999999999999989
0
LWPOLYLINE
5
189
100
AcDbEntity
8
0
100
AcDbPolyline
90
4
70
1
43
0.0
10
-55
20
-332.5
42
0.99999999999999989
10
-55
20
-327.5
10
-65
20
-327.5
42
0.99999999999999989
10
-65
20
-332.5
0
LWPOLYLINE
5
190
100
AcDbEntity
8
0
100
AcDbPolyline
90
4
70
1
43
0.0
10
-15
20
-12.5
42
0.99999999999999989
10
-15
20
-7.5
10
-25
20
-7.5
42
0.99999999999999989
10
-25
20
-12.5
0
LWPOLYLINE
5
191
100
AcDbEntity
8
0
100
AcDbPolyline
90
4
70
1
43
0.0
10
-55
20
-212.5
42
0.99999999999999989
10
-55
20
-207.5
10
-65
20
-207.5
42
0.99999999999999989
10
-65
20
-212.5
0
LWPOLYLINE
5
192
100
AcDbEntity
8
0
100
AcDbPolyline
90
4
70
1
43
0.0
10
-135
20
-212.5
42
0.99999999999999989
10
-135
20
-207.5
10
-145
20
-207.5
42
0.99999999999999989
10
-145
20
-212.5
0
LWPOLYLINE
5
193
100
AcDbEntity
8
0
100
AcDbPolyline
90
4
70
1
43
0.0
10
-75
20
-152.5
10
-85
20
-152.5
42
-0.99999999999999989
10
-85
20
-147.5
10
-75
20
-147.5
42
-0.99999999999999989
0
LWPOLYLINE
5
194
100
AcDbEntity
8
0
100
AcDbPolyline
90
4
70
1
43
0.0
10
-215
20
-292.5
42
0.99999999999999989
10
-215
20
-287.5
10
-225
20
-287.5
42
0.99999999999999989
10
-225
20
-292.5
0
LWPOLYLINE
5
195
100
AcDbEntity
8
0
100
AcDbPolyline
90
4
70
1
43
0.0
10
-255
20
-292.5
42
0.99999999999999989
10
-255
20
-287.5
10
-265
20
-287.5
42
0.99999999999999989
10
-265
20
-292.5
0
LWPOLYLINE
5
196
100
AcDbEntity
8
0
100
AcDbPolyline
90
4
70
1
43
0.0
10
-195
20
-272.5
10
-205
20
-272.5
42
-0.99999999999999989
10
-205
20
-267.5
10
-195
20
-267.5
42
-0.99999999999999989
0
LWPOLYLINE
5
197
100
AcDbEntity
8
0
100
AcDbPolyline
90
4
70
1
43
0.0
10
-155
20
-272.5
10
-165
20
-272.5
42
-0.99999999999999989
10
-165
20
-267.5
10
-155
20
-267.5
42
-0.99999999999999989
0
LWPOLYLINE
5
198
100
AcDbEntity
8
0
100
AcDbPolyline
90
4
70
1
43
0.0
10
-195
20
-312.5
10
-205
20
-312.5
42
-0.99999999999999989
10
-205
20
-307.5
10
-195
20
-307.5
42
-0.99999999999999989
0
LWPOLYLINE
5
199
100
AcDbEntity
8
0
100
AcDbPolyline
90
4
70
1
43
0.0
10
-255
20
-172.5
42
0.99999999999999989
10
-255
20
-167.5
10
-265
20
-167.5
42
0.99999999999999989
10
-265
20
-172.5
0
LWPOLYLINE
5
200
100
AcDbEntity
8
0
100
AcDbPolyline
90
4
70
1
43
0.0
10
-35
20
-312.5
10
-45
20
-312.5
42
-0.99999999999999989
10
-45
20
-307.5
10
-35
20
-307.5
42
-0.99999999999999989
0
LWPOLYLINE
5
201
100
AcDbEntity
8
0
100
AcDbPolyline
90
4
70
1
43
0.0
10
-215
20
-52.5
42
0.99999999999999989
10
-215
20
-47.5
10
-225
20
-47.5
42
0.99999999999999989
10
-225
20
-52.5
0
LWPOLYLINE
5
202
100
AcDbEntity
8
0
100
AcDbPolyline
90
4
70
1
43
0.0
10
-55
20
-252.5
42
0.99999999999999989
10
-55
20
-247.5
10
-65
20
-247.5
42
0.99999999999999989
10
-65
20
-252.5
0
LWPOLYLINE
5
203
100
AcDbEntity
8
0
100
AcDbPolyline
90
4
70
1
43
0.0
10
-175
20
-92.5
42
0.99999999999999989
10
-175
20
-87.5
10
-185
20
-87.5
42
0.99999999999999989
10
-185
20
-92.5
0
LWPOLYLINE
5
204
100
AcDbEntity
8
0
100
AcDbPolyline
90
4
70
1
43
0.0
10
-55
20
-132.5
42
0.99999999999999989
10
-55
20
-127.5
10
-65
20
-127.5
42
0.99999999999999989
10
-65
20
-132.5
0
LWPOLYLINE
5
205
100
AcDbEntity
8
0
100
AcDbPolyline
90
4
70
1
43
0.0
10
-95
20
-292.5
42
0.99999999999999989
10
-95
20
-287.5
10
-105
20
-287.5
42
0.99999999999999989
10
-105
20
-292.5
0
LWPOLYLINE
5
206
100
AcDbEntity
8
0
100
AcDbPolyline
90
4
70
1
43
0.0
10
-255
20
-12.5
42
0.99999999999999989
10
-255
20
-7.5
10
-265
20
-7.5
42
0.99999999999999989
10
-265
20
-12.5
0
CIRCLE
5
207
100
AcDbEntity
8
0
100
AcDbCircle
10
-165.00000000000003
20
-145.00000000000003
30
0
40
4.4999999999999929
210
0
220
-0
230
1
0
CIRCLE
5
208
100
AcDbEntity
8
0
100
AcDbCircle
10
-90.000000000000171
20
-120.00000000000003
30
0
40
4.4999999999999929
210
0
220
-0
230
1
0
CIRCLE
5
209
100
AcDbEntity
8
0
100
AcDbCircle
10
-165.00000000000003
20
-195.00000000000003
30
0
40
4.4999999999999929
210
0
220
-0
230
1
0
CIRCLE
5
210
100
AcDbEntity
8
0
100
AcDbCircle
10
-189.99999999999989
20
-120.00000000000003
30
0
40
4.4999999999999929
210
0
220
-0
230
1
0
CIRCLE
5
211
100
AcDbEntity
8
0
100
AcDbCircle
10
-115.00000000000003
20
-145.00000000000003
30
0
40
4.4999999999999929
210
0
220
-0
230
1
0
CIRCLE
5
212
100
AcDbEntity
8
0
100
AcDbCircle
10
-189.99999999999989
20
-220.00000000000003
30
0
40
4.4999999999999929
210
0
220
-0
230
1
0
CIRCLE
5
213
100
AcDbEntity
8
0
100
AcDbCircle
10
-90.000000000000171
20
-220.00000000000003
30
0
40
4.4999999999999929
210
0
220
-0
230
1
0
CIRCLE
5
214
100
AcDbEntity
8
0
100
AcDbCircle
10
-115.00000000000003
20
-195.00000000000003
30
0
40
4.4999999999999929
210
0
220
-0
230
1
0
LWPOLYLINE
5
215
100
AcDbEntity
8
0
100
AcDbPolyline
90
8
70
1
43
0.0
10
0
20
-7.9999999999999725
42
0.4142135623730942
10
-8
20
8.283039504820624e-29
10
-272
20
0
42
0.41421356237309209
10
-280
20
-7.9999999999999982
10
-280.00000000000006
20
-332
42
0.41421356237309764
10
-272
20
-340
10
-8.0000000000000071
20
-340
42
0.41421356237309709
10
1.9984014443253222e-14
20
-332
0
ENDSEC
0
SECTION
2
OBJECTS
0
DICTIONARY
5
C
100
AcDbDictionary
3
ACAD_GROUP
350
D
3
ACAD_MLINESTYLE
350
17
0
DICTIONARY
5
D
100
AcDbDictionary
0
DICTIONARY
5
1A
330
C
100
AcDbDictionary
0
DICTIONARY
5
17
100
AcDbDictionary
0
ENDSEC
0
EOF
